<svg xmlns="http://www.w3.org/2000/svg" xml:space="preserve" 
width="8.5in" height="11in" version="1.1" 
viewBox="0 0 8500 11000"
 xmlns:xlink="http://www.w3.org/1999/xlink">
  <path id="logo" d="M3380.75 2359.28c-100.87,0 -812.05,0 -912.92,0 322.87,237.58 553.13,574.26 716.24,969.76 -1208.54,321.09 -2039.73,1198.8 -2039.73,2179.44 0,409.3 143.05,793.91 392.8,1127.88 1.14,6.76 1.78,12.59 1.78,17 2.7,-1.28 5.33,-2.49 8.04,-3.84 528.59,695.96 1523.94,1166.94 2660.86,1166.94 1687.33,0 3063.47,-1036.76 3063.47,-2307.98 0,-985.41 -835.67,-1860.7 -2048.05,-2177.38 163.25,-396.07 394,-733.38 718.01,-971.82 -100.87,0 -812.05,0 -912.91,0 -244.63,685.65 -352.75,1498.91 -413.92,2520.53 -91.62,4.41 -184.87,7.47 -280.12,9.74 9.89,-761.55 66.01,-1709.4 365.98,-2530.27l-498.07 0 0 2532.12 0 -2532.12 -486.83 0c266.11,664.24 334.82,1720.28 351.33,2530.84 -92.54,-1.99 -183.17,-4.91 -272.22,-8.89 -61.18,-1022.25 -169.01,-1836.01 -413.71,-2521.95zm3129.26 4145.99c-577.59,-237.94 -1094.73,-337.39 -1663.86,-377.65 4.63,531.5 28.88,1033.42 34.36,1446.2 704.43,-158.41 1292.26,-551.21 1629.5,-1068.56zm-1930.89 -392.23c-80.74,-3.27 -162.82,-5.69 -246.47,-7.4l0 1541.38c83.22,-3.84 165.45,-10.74 246.47,-20.84 0,-1001.98 0,-834.61 0,-1513.14zm-246.47 -203.87c82.58,0.28 164.67,1.21 246.47,2.7 0,-87.42 0,-185.52 0,-297.26 -82.16,-1.78 -164.31,-3.48 -246.47,-4.77l0 299.33zm512.72 9.74c623.83,21.62 1233.22,78.53 1870.15,171.79 41.04,-116.37 70.35,-236.73 86.78,-360.22 -643.04,-54.34 -1296.6,-90.06 -1953.51,-109.05 -2.06,99.73 -3.2,198.89 -3.41,297.48zm-2983.23 589.19c590.33,-244.13 1117,-343.5 1700.07,-382.55 -4.13,535.63 -27.96,1041.46 -33.65,1457.02 -720.5,-152.22 -1322.71,-548.86 -1666.43,-1074.46zm1967.81 -396.28c79.24,-2.99 159.69,-5.19 241.78,-6.69l0 1543.23c-81.59,-2.92 -162.25,-8.82 -241.78,-17.71 0,-991.88 0,-836.81 0,-1518.83zm241.78 -202.73c-81.02,0.15 -161.54,0.93 -241.78,2.28 0,-87.57 0,-185.73 0,-297.41 80.59,-1.7 161.12,-3.27 241.78,-4.48l0 299.61zm-509.09 8.82c-636.71,20.84 -1257.62,78.6 -1907.42,173.99 -41.19,-116.59 -70.7,-237.02 -87.21,-360.72 655.42,-55.48 1321.65,-91.62 1991.29,-110.54 2.13,99.59 3.06,198.81 3.34,297.26zm-1993.56 -661.89c661.18,59.26 1322.78,96.17 1982.54,113.67 -3.91,-97.95 -9.04,-195.9 -15.58,-293.78 -626.25,-22.91 -1238.56,-81.8 -1879.75,-176.98 -40.97,115.45 -70.35,234.59 -87.21,357.09zm2250.85 119.86c84.01,1.57 167.8,2.78 251.67,3.7 -0.07,-90.98 -0.43,-189 -1.7,-292.64 -88.56,-0.43 -176.48,-1.56 -264.12,-3.34 5.05,95.67 9.68,192.98 14.16,292.28zm512.51 3.35c85.36,-1.07 170.86,-2.28 256.36,-3.98 4.41,-99.37 9.18,-196.69 14.23,-292.36 -89.7,1.99 -179.75,3.27 -270.3,3.84 -0.43,102.07 -0.36,199.67 -0.29,292.5zm524.04 -10.31c647.17,-17.71 1296.25,-54.13 1944.76,-112.11 -16.79,-122.21 -46.02,-241.35 -86.85,-356.59 -628.1,92.97 -1228.89,150.94 -1842.26,174.56 -6.54,97.95 -11.67,196.04 -15.65,294.14zm-654.28 -281.83l0 293.64 0 -293.64zm0 521.05l0 301.04 0 -301.04zm0 497.22l0 1545.01 0 -1545.01zm2301.07 -1626.59c-562.73,235.45 -1066.56,339.16 -1614.64,383.69 42.96,-481.5 124.62,-950.19 271.09,-1365.04 575.32,188.65 1051.27,538.76 1343.55,981.35zm-4634.43 -2.92c575.46,241.71 1088.97,345.49 1650.63,388.81 -43.6,-486.55 -126.05,-959.94 -274.93,-1377.92 -589.19,185.44 -1077.52,539.33 -1375.7,989.11z"/>
</svg>
